<?xml version="1.0" encoding="UTF-8"?>
<svg xmlns="http://www.w3.org/2000/svg" version="1.1" viewBox="0 0 64 64">
  <defs>
    <style>
      .cls-1 {
        fill: #fff;
      }

      .cls-2 {
        fill: #b4e0e9;
      }

      .cls-3 {
        fill: #eae4ca;
      }

      .cls-4 {
        fill: #ecd026;
      }

      .cls-5 {
        fill: #0d1227;
      }

      .cls-6 {
        fill: #4b6edd;
      }

      .cls-7 {
        fill: #26beef;
      }
    </style>
  </defs>
  <!-- Generator: Adobe Illustrator 28.6.0, SVG Export Plug-In . SVG Version: 1.2.0 Build 709)  -->
  <g>
    <g id="astronaut">
      <path class="cls-3" d="M58.9,26.1c-2-2.6-5-4.2-8.2-4.6-.5,0-.9,0-1.4,0-1.8,0-3.5.4-5.1,1.1.9-1.4.7-3.3-.5-4.5-.4-2-1.8-4-5.7-4.2h-.2c-.1,0-.2,0-.3,0-1.8,0-3.4.8-4.5,2.2-.9-1.7-2.6-2.8-4.5-2.8-.1,0-.2,0-.3,0-1.7-2.1-4.5-3.1-7.2-2.5-1.5.3-2.9,1.2-3.8,2.4-1,1.2-1.6,2.8-1.7,4.4v.4c-.1,1.5.3,3,1.2,4.3l.3.5-4.3-1.8c-1.8-.7-3.8.1-4.6,1.9v.3c-.8,1.6-.9,3.5-.3,5.2h-.9c-2.4.4-4.2,2.5-4,4.9v.8c.4,3.3,2.8,6,6.1,6.6.5,1.9,1.4,3.7,2.6,5.3-.1.1-.3.3-.4.4-.9,1.3-.6,3.1.6,4,0,0,0,0,0,0,2,1.4,4.3,2.2,6.6,2.4,2.2.1,4.3-.2,6.3-1.1.5-.2.9-.6,1.2-1,2,1.9,4.8,2.9,7.5,2.8,1.1,0,2.2,0,3.3-.2,1.7-.3,3.4-.8,5-1.5,0,0,.1,0,.2,0,1.6-.6,3.1-1.3,4.6-2.2.2-.1.4-.2.6-.4,1.4-.8,2.6-1.9,3.5-3.2,6.7-.7,11.6-6.7,10.9-13.4-.2-2.3-1.1-4.5-2.6-6.4ZM31.6,23.6h-.1c0,0,0-.1.1-.2,0,0,0,.1,0,.2h0Z"/>
      <path class="cls-6" d="M38.3,35.2l-2.6-7.8c-1.5-2.8-.5-3.1-.4-6.3l-.2-1.8c0-1.1,1.1-2,2.2-2h0c1.1,0,2.6,0,2.8,1.9l-.6,2.1c-.1,2.4.2,2.1,1.4,4.3l5,7.3-7.5,2.2ZM14.5,35.9c-1.1-1.3-1.7-2.9-1.7-4.6v-1.9h0c-1.9-.8-2.9-2.9-2.1-4.8,0,0,0,0,0-.1v-.3c.1,0,6.3,2.5,6.3,2.5v2.7c0,1.2.8,2.2,2,2.5l7.7,1.6-1,6-7.7-1.6c-1.4-.3-2.7-1-3.6-2.1Z"/>
      <path class="cls-2" d="M42.1,29.4l-1.7,2.4-2.2-1.1-14.1,4.7-.9-4.4c-.3-1.2.5-2.5,1.8-2.7,0,0,0,0,0,0,3.6-.7,10.5-1.9,13.9-2.5,1.1-.2,2.2.5,2.6,1.5l.7,2.1Z"/>
      <path class="cls-1" d="M48.1,42.8c-1.3,3.8-10.6,6.7-12.1,6.8-6.2.8-6.9-.5-10.7-4.2l-5.2.6c-.4,0-2.3,0-2.7,0-2.6-.3-5.1-4.1-5.5-6.8l-.3-2.1h-1.4c-2.1.3-3.9-1.3-4.1-3.4v-.9c-.1-.5.3-1,.8-1l7.1-.7c.5,0,1,.3,1.1.9l.5,4.9c.1.9.9,1.5,1.8,1.5l5-2.8c0-1.4,1.1-2.6,2.5-2.9l11.2-2c1.5-.3,3,.3,3.9,1.5,2.7,3.5,5.4,7.1,8,10.6Z"/>
      <circle class="cls-1" cx="49.1" cy="33.6" r="8.7"/>
      <path class="cls-7" d="M57.5,36.4c-1.3,4-5.2,6.5-9.3,6-.6,0-1.2-.2-1.7-.4l-.6-.7c-1.3-3-1.1-6.5.6-9.4,4.2-.2,8.2,1.4,11.1,4.4Z"/>
      <circle class="cls-4" cx="46.4" cy="31.8" r="2.1"/>
      <path class="cls-1" d="M35.1,36c-.7.9-1.7,1.4-2.8,1.4-.9,0-1.8-.4-2.5-1l-4.5-4.5-3.8-7.9-2-3.5c-.6-.7-.9-1.7-.8-2.6,0-.1,0-.2,0-.3,0-1.6,1.2-3,2.8-3.4,1.8-.4,3.6.6,4.2,2.4v.3c.2.5.3,1,.2,1.5v1s.9-1.8.9-1.8c.4-.8,1.3-1.1,2.1-.7,0,0,.1,0,.2.1h0c.5.4.8,1,.6,1.6-.5,1.8-1.4,3.4-2.8,4.8,1,1.6,2,3.3,3,4.9l4.1,2.4c1.7,1,2.2,3.2,1.3,4.8,0,.1-.1.2-.2.3Z"/>
      <path class="cls-5" d="M23.5,49c0,.1,0,.2-.1.3,0,0,0,0,0,0-.5.2-1.1.4-1.7.6,0,0,0,0,0,0-.1,0-.2,0-.2-.2,0-.1,0-.2.2-.2.6-.1,1.1-.3,1.6-.6.1,0,.2,0,.3.1,0,0,0,0,0,0ZM19,49.7c-.5,0-1.1,0-1.6-.1h-.1c-.1,0-.2,0-.3.1,0,0,0,0,0,0,0,.1,0,.2.2.3,0,0,0,0,0,0h.1c.6.1,1.1.2,1.7.2h0c.1,0,.2,0,.2-.2,0-.1,0-.2-.2-.2h0ZM13.3,47.9c0,0-.2,0-.3,0,0,0,0,0,0,0,0,0,0,.2,0,.3,0,0,0,0,0,0,.5.4,1,.7,1.6.9,0,0,0,0,0,0,.1,0,.2,0,.2-.2,0,0,0-.2-.1-.2-.5-.2-1-.5-1.5-.9h0ZM58.8,34.8c-.6,4.8-4.7,8.5-9.5,8.5-.1,0-.2,0-.3,0-.8,1.5-2,2.8-3.5,3.6,0,0-.2.1-.3.2-1.4.8-2.9,1.5-4.4,2.1,0,0,0,0,0,0-1.4.6-2.9,1-4.5,1.3-1,.1-2,.2-3,.2-3.7,0-5.1-1.4-7.7-3.9l-.5-.4-4.8.6c-.5,0-2.4,0-2.9,0-3.3-.4-5.9-4.7-6.3-7.5l-.2-1.3h-.6c-2.6.3-4.8-1.7-5-4.2v-.8c-.2-1,.6-1.9,1.6-2l5.3-.5v-.5c-2-1.2-2.9-3.7-2-5.8v-.3c.3-.4.8-.7,1.3-.5l6.2,2.5c.3.1.5.5.5.8v2.7c0,.8.5,1.5,1.3,1.6l3.1.6v-.5c-.3-.9,0-1.7.4-2.5l-2.1-4.4-2.1-3.5c-.6-.8-.9-1.9-.8-2.9v-.3c0-2.5,2.2-4.4,4.7-4.3,1.9,0,3.5,1.3,4.1,3v.2c1.1-.9,2.6-.8,3.5.2.5.6.7,1.4.5,2.2-.5,1.7-1.3,3.3-2.5,4.6l1.8,3c1.4-.3,2.9-.5,4.3-.8-.1-.8-.1-1.7,0-2.5.1-.7.2-1.4.3-2.1l-.2-1.8c0,0,0-.1,0-.2,0-1.6,1.5-2.9,3.1-2.8,0,0,0,0,0,0h.2c1.1,0,3.1.2,3.4,2.7,0,.1,0,.2,0,.3v.3c.3,0,.8.1.9.5.2.5,0,1-.5,1.1l-1,.4c-.1.8,0,1.5.5,2.1.2.3.4.7.7,1.3l1,1.4c3.9-3.6,9.9-3.4,13.6.4,1.9,2.1,2.9,4.9,2.5,7.7h0ZM41.5,32.8c-.3,2.7.8,5.5,3,7.1-.5-1.9-.5-3.9,0-5.8-1.2-1.1-1.4-2.9-.3-4.2,1.1-1.2,2.9-1.4,4.2-.3.5.4.8.9,1,1.5,2.8.4,5.5,1.6,7.7,3.4h0c.5-4.3-2.6-8.2-6.9-8.7-.3,0-.6,0-.9,0-4,0-7.3,3-7.8,6.9ZM47.3,32.8c.2-.2.4-.5.4-.8h0c0-.7-.4-1.2-1-1.3,0,0,0,0,0,0,0,0,0,0-.1,0-.7,0-1.2.5-1.2,1.2,0,.7.5,1.2,1.2,1.2.3,0,.5,0,.7-.3ZM36.1,29.8c1.4-.3,2.9.1,4,1.1.2-.7.6-1.5,1-2.1l-.3-1.1c-.2-.7-.9-1.1-1.6-.9-1.9.3-4.9.9-7.9,1.4l3.2,1.9,1.5-.3ZM36,25.5c1.1-.2,2.1-.4,2.9-.5.2,0,.5,0,.7,0h0c-.7-1.1-1-2.3-.8-3.6,0,0,0-.1,0-.2l.5-2c-.1-.8-.5-.9-1.7-.9h-.3c-.3,0-.6,0-.9.3-.2.2-.4.5-.4.8l.2,1.7c0,0,0,.1,0,.2,0,.8-.2,1.6-.3,2.4-.2.6-.2,1.3,0,1.9h0ZM22.3,23.5l3.7,7.8,4.4,4.4c1,1,2.7,1,3.7,0,.1-.1.2-.2.3-.3.4-.6.6-1.4.5-2.1-.1-.7-.6-1.4-1.3-1.8l-4.1-2.4c-.1,0-.2-.2-.3-.3l-3-4.9c-.2-.3-.2-.8.1-1.1,1.2-1.2,2.1-2.7,2.5-4.4,0-.3,0-.5-.3-.7-.3-.2-.7-.1-.9.1,0,0,0,0,0,0l-1,1.8c-.2.4-.8.6-1.2.4-.3-.2-.5-.5-.5-.8v-1.4c0-.2,0-.5,0-.7v-.5c-.6-1.3-2-2.1-3.3-1.8-.6.1-1.1.4-1.5.9-.4.5-.6,1-.6,1.6v.3c-.1.7.1,1.4.6,2l2.1,3.6ZM13.9,29.4v.8s0,0,0,0c1-.1,1.9.6,2,1.6l.5,4.4c.5.3,1,.6,1.6.7l3.6-2c.1-.6.3-1.1.6-1.5l-3.2-.6c-1.6-.3-2.7-1.7-2.7-3.4v-2.1s-4.8-1.9-4.8-1.9c-.3,1.4.4,2.7,1.7,3.2.3.1.6.5.6.8ZM47.1,43c-4.6-1.1-7.7-5.3-7.4-10l-.2-.3c-.7-.9-1.9-1.4-3.1-1.2h-.3c1,1.6.9,3.6-.2,5h0c-.8,1.1-2.2,1.8-3.6,1.8-1.2,0-2.3-.5-3.1-1.3l-3.6-3.6h-.5c-.4.2-.8.4-1.1.6,0,0,.1,0,.1,0,.4.5.7,1,1,1.4,0,0,0,.2,0,.3,0,0-.2,0-.3,0h0c-.3-.5-.7-.9-1-1.4,0,0,0,0,0,0-.3.4-.4.8-.5,1.2,0,.3-.2.6-.4.7l-.3.2c0,.1,0,.3,0,.4,0,.1,0,.2,0,.3,0,.1,0,.2-.2.2h0c-.1,0-.2,0-.2-.2,0-.1,0-.2,0-.3,0,0,0,0,0-.1l-4.2,2.4c-.1,0-.2.1-.4.1,0,0,0,0,0,0,0,.3-.1.5-.2.9,0,.1-.1.2-.2.2,0,0,0,0,0,0-.1,0-.2-.1-.2-.2,0,0,0,0,0,0,0-.3,0-.6.1-.8-1.2-.1-2.1-1-2.3-2.2l-.5-4.9s0,0,0,0l-7.1.7s0,0,0,0v.9c.2,1.6,1.6,2.8,3.2,2.7h1.4c.5-.2.9.2,1,.6l.3,2.1c.3,2.4,2.6,5.8,4.7,6,.3,0,2.1,0,2.6,0l4.5-.5c-.1-.2-.2-.4-.3-.6,0-.1,0-.2,0-.3s.2,0,.3,0c.2.3.3.6.4.8h.2c.3,0,.5,0,.7.2l.8.7c3.1,3.1,4,3.9,9.3,3.2.8-.2,1.6-.4,2.4-.6-1.6-1-2.9-2.4-3.8-4.1-.2-.4,0-1,.4-1.2.4-.2,1,0,1.2.4,1,1.8,2.6,3.2,4.4,4.1.7-.3,1.4-.6,2.1-.9-2-.7-3.8-2.1-5-3.9-.2-.4,0-1,.4-1.2.4-.2,1,0,1.2.4,0,.1,1.3,2.4,5.5,3.6,1-.5,1.8-1.3,2.4-2.2ZM56.5,36.5c-2-1.9-4.5-3.2-7.3-3.6-.4,1.2-1.5,1.9-2.8,1.9,0,0-.2,0-.3,0-.1.5-.2,1-.3,1.5-.1,1.6.1,3.1.7,4.6v.2c4,1.3,8.3-.7,9.8-4.6h0ZM26.8,37.7c0,0-.2-.1-.3,0,0,0-.1.2,0,.3,0,0,0,0,0,0,.4.5.8.9,1.3,1.2,0,0,.2,0,.3,0,0,0,0-.2,0-.3h0c-.5-.3-.9-.7-1.3-1.2ZM32.1,40.2c-.1,0-.3,0-.4,0-.4,0-.9-.1-1.3-.3-.1,0-.2,0-.3.2,0,.1,0,.2.1.3.4.1.9.2,1.4.3.1,0,.3,0,.4,0h0c.1,0,.2,0,.2-.2,0-.1,0-.2-.2-.2h0ZM36.2,39.3c-.5.3-1,.5-1.6.6-.1,0-.2.2-.2.3,0,0,.1.2.2.2,0,0,0,0,0,0,.6-.2,1.1-.4,1.7-.7.1,0,.1-.2,0-.3,0-.1-.2-.1-.3,0,0,0,0,0,0,0ZM39.2,36.4c-.3.5-.6,1-1,1.4,0,0,0,.2,0,.3,0,0,.2,0,.3,0,.4-.5.8-1,1-1.5,0-.1,0-.2,0-.3-.1,0-.2,0-.3,0,0,0,0,0,0,0h0ZM22.7,39.6c-.1,0-.2.2-.2.3.2.6.3,1.1.6,1.7,0,0,.1.1.2.1,0,0,0,0,0,0,.1,0,.2-.2.1-.3,0,0,0,0,0,0-.2-.5-.4-1.1-.5-1.7,0-.1-.2-.2-.3-.2ZM17,42.5c-.1,0-.2.1-.2.2,0,.6.2,1.2.4,1.8,0,0,.1.1.2.1,0,0,0,0,0,0,.1,0,.2-.2.1-.3-.2-.5-.3-1.1-.4-1.7,0-.1-.1-.2-.2-.2,0,0,0,0,0,0ZM33.2,45.6c-.5,0-.9.4-.9.9s.4.9.9.9.9-.4.9-.9h0c0-.5-.4-.9-.9-.9Z"/>
    </g>
  </g>
</svg>