<?xml version="1.0" encoding="UTF-8"?>
<svg id="Layer_1" data-name="Layer 1" xmlns="http://www.w3.org/2000/svg" version="1.1" viewBox="0 0 707.49 261.91">
  <defs>
    <style>
      .cls-1 {
        fill: #26beef;
      }

      .cls-1, .cls-2 {
        stroke-width: 0px;
      }

      .cls-2 {
        fill: #ecd026;
      }
    </style>
  </defs>
  <path class="cls-1" d="M139.63,257.29C69.01,257.29,4.69,192.97,4.69,122.35c0-35.29,15.8-69.16,35.06-95.15,10.4-14.03,30.81-15.52,42.93-2.95l.02.02c9.6,9.96,10.37,25.3,2.15,36.42-13.4,18.13-24,40.81-24,61.67,0,39.76,39.03,78.78,78.78,78.78,28.68,0,40.87-11.54,65.17-34.55,9.99-9.46,21.32-20.18,35.4-31.21,24.33-19.07,53.78-25.5,82.93-18.11,12.87,3.26,24.87,9.11,35.1,16.8,17.15,12.9,13.85,39.59-5.84,48.13h0c-9.18,3.98-19.84,2.88-27.81-3.18-4.08-3.1-9.24-5.79-15.26-7.32-8.43-2.14-21.25-2.51-34.49,7.87-12.02,9.42-21.89,18.76-31.43,27.8-27.12,25.67-52.74,49.92-103.78,49.92Z"/>
  <path class="cls-2" d="M574.41,256.31c-33.73,0-67.95-17.74-96.35-49.95-17.34-19.67-33.75-41.9-51.64-69.96-21.71-34.02-67.53-70.4-120.95-74.96-41.55-3.54-81.71,12.33-119.67,47.24-10.63,9.78-26.97,9.86-37.65.14l-.24-.22c-12.04-10.95-12.33-30-.35-41.01C209.4,10.76,269.21,2.01,310.23,5.5c77.49,6.61,136.53,58.38,163.53,100.71,16.3,25.56,31.05,45.58,46.43,63.02,17.32,19.65,37.1,30.93,54.22,30.93,39.57,0,71.76-32.19,71.76-71.76,0-23.64-8.63-46.4-19.29-63-6.96-10.85-5.11-25.16,3.84-34.44h0c12.6-13.07,34.02-10.77,43.79,4.53,17.4,27.24,27.82,60.98,27.82,92.92,0,70.54-57.38,127.93-127.92,127.93Z"/>
</svg>