<?xml version="1.0" encoding="UTF-8"?>
<svg id="Layer_1" xmlns="http://www.w3.org/2000/svg" viewBox="0 0 708.73 708.73">
  <defs>
    <style>
      .cls-1 {
        fill: #ecd026;
      }

      .cls-2 {
        fill: #0d1227;
      }

      .cls-3 {
        fill: #e6ecff;
        font-family: Damion-Regular, Damion;
        font-size: 74px;
      }

      .cls-4 {
        fill: #26beef;
      }
    </style>
  </defs>
  <rect class="cls-2" width="708.73" height="708.73"/>
  <g>
    <path class="cls-4" d="M189.16,423.68c-54.55,0-104.23-49.68-104.23-104.23,0-27.26,12.2-53.42,27.08-73.5,8.03-10.84,23.8-11.99,33.16-2.28h.01c7.41,7.7,8.01,19.55,1.66,28.14-10.35,14-18.54,31.52-18.54,47.64,0,30.71,30.14,60.85,60.85,60.85,22.15,0,31.57-8.92,50.34-26.68,7.72-7.31,16.47-15.59,27.34-24.11,18.79-14.73,41.54-19.69,64.06-13.99,9.94,2.52,19.21,7.03,27.11,12.98,13.25,9.96,10.7,30.58-4.51,37.18h0c-7.09,3.08-15.33,2.22-21.48-2.45-3.15-2.4-7.14-4.47-11.78-5.65-6.51-1.65-16.42-1.94-26.64,6.08-9.28,7.27-16.91,14.49-24.28,21.47-20.95,19.83-40.74,38.56-80.16,38.56Z"/>
    <path class="cls-1" d="M524.99,422.93c-26.05,0-52.48-13.7-74.42-38.58-13.4-15.19-26.07-32.36-39.89-54.04-16.77-26.28-52.17-54.38-93.43-57.9-32.09-2.73-63.12,9.53-92.43,36.49-8.21,7.55-20.83,7.62-29.08.11l-.19-.17c-9.3-8.46-9.53-23.17-.27-31.68,47.78-43.9,93.97-50.66,125.66-47.97,59.86,5.1,105.46,45.1,126.31,77.79,12.59,19.74,23.98,35.21,35.86,48.68,13.38,15.18,28.65,23.89,41.88,23.89,30.57,0,55.43-24.87,55.43-55.43,0-18.26-6.67-35.84-14.9-48.66-5.38-8.38-3.95-19.44,2.96-26.6h0c9.73-10.09,26.28-8.32,33.83,3.5,13.44,21.04,21.49,47.1,21.49,71.77,0,54.48-44.32,98.81-98.81,98.81Z"/>
  </g>
  <text class="cls-3" transform="translate(211.68 522.6)"><tspan x="0" y="0">WavyStyle</tspan></text>
</svg>